HIERARCHY
ROOT Hips
{
	OFFSET 0.000000 0.000000 0.000000 
	CHANNELS 6 Xposition Yposition Zposition Zrotation Yrotation Xrotation
	JOINT LeftUpLeg
	{
		OFFSET 1.363060 -1.794630 0.839290 
		CHANNELS 3 Zrotation Yrotation Xrotation
		JOINT LeftLeg
		{
			OFFSET 2.448110 -6.726130 0.000000 
			CHANNELS 3 Zrotation Yrotation Xrotation
			JOINT LeftFoot
			{
				OFFSET 2.562200 -7.039590 0.000000 
				CHANNELS 3 Zrotation Yrotation Xrotation
				JOINT LeftToeBase
				{
					OFFSET 0.157640 -0.433110 2.322550 
					CHANNELS 3 Zrotation Yrotation Xrotation
					End Site
					{
						OFFSET 0.000000 0.000000 0.000000 
					}
				}
			}
		}
	}
	JOINT RightUpLeg
	{
		OFFSET -1.305520 -1.794630 0.839290 
		CHANNELS 3 Zrotation Yrotation Xrotation
		JOINT RightLeg
		{
			OFFSET -2.542530 -6.985550 0.000000 
			CHANNELS 3 Zrotation Yrotation Xrotation
			JOINT RightFoot
			{
				OFFSET -2.568260 -7.056230 0.000000 
				CHANNELS 3 Zrotation Yrotation Xrotation
				JOINT RightToeBase
				{
					OFFSET -0.164730 -0.452590 2.363150 
					CHANNELS 3 Zrotation Yrotation Xrotation
					End Site
					{
						OFFSET 0.000000 0.000000 0.000000 
					}
				}
			}
		}
	}
	JOINT Spine
	{
		OFFSET 0.028270 2.035590 -0.193380 
		CHANNELS 3 Zrotation Yrotation Xrotation
		JOINT Spine1
		{
			OFFSET 0.056720 2.048850 -0.042750 
			CHANNELS 3 Zrotation Yrotation Xrotation
			JOINT Neck1
			{
				OFFSET -0.054170 1.746240 0.172020 
				CHANNELS 3 Zrotation Yrotation Xrotation
				JOINT Head
				{
					OFFSET 0.104070 1.761360 -0.123970 
					CHANNELS 3 Zrotation Yrotation Xrotation
					End Site
					{
						OFFSET 0.000000 0.000000 0.000000 
					}
				}
			}
			JOINT LeftArm
			{
				OFFSET 3.362410 1.200890 -0.311210 
				CHANNELS 3 Zrotation Yrotation Xrotation
				JOINT LeftForeArm
				{
					OFFSET 4.983000 -0.000000 -0.000000 
					CHANNELS 3 Zrotation Yrotation Xrotation
					JOINT LeftHand
					{
						OFFSET 3.483560 -0.000000 -0.000000 
						CHANNELS 3 Zrotation Yrotation Xrotation
						JOINT LeftHandIndex1
						{
							OFFSET 0.715260 -0.000000 -0.000000 
							CHANNELS 3 Zrotation Yrotation Xrotation
							End Site
							{
								OFFSET 0.000000 0.000000 0.000000 
							}
						}
					}
				}
			}
			JOINT RightArm
			{
				OFFSET -3.136600 1.374050 -0.404650 
				CHANNELS 3 Zrotation Yrotation Xrotation
				JOINT RightForeArm
				{
					OFFSET -5.241900 -0.000000 -0.000000 
					CHANNELS 3 Zrotation Yrotation Xrotation
					JOINT RightHand
					{
						OFFSET -3.444170 -0.000000 -0.000000 
						CHANNELS 3 Zrotation Yrotation Xrotation
						JOINT RightHandIndex1
						{
							OFFSET -0.622530 -0.000000 -0.000000 
							CHANNELS 3 Zrotation Yrotation Xrotation
							End Site
							{
								OFFSET 0.000000 0.000000 0.000000 
							}
						}
					}
				}
			}
		}
	}
}
MOTION
Frames: 17
Frame Time: 0.041667
-8.227300 27.309800 0.356800 87.724600 88.654600 103.475000 -18.085700 -19.859000 -18.655600 1.632200 8.053700 22.877400 0.615800 9.734300 -21.398800 1.493500 7.720100 21.867100 17.044400 17.851700 -16.062300 -1.160900 -6.840300 19.243200 0.842100 -16.804800 -11.838800 -0.333100 3.709000 -10.259300 -0.443900 1.510900 -5.399800 3.028800 0.908600 2.810800 7.487600 -0.238200 2.627800 3.045300 -0.132600 0.079600 -91.154600 4.061200 6.090600 9.348700 -15.714400 -1.292900 0.000000 0.000000 39.355600 -7.125000 0.000000 0.000000 93.447500 -1.742500 10.161800 -8.771000 14.794700 -1.140900 0.000000 0.000000 26.674000 7.125000 0.000000 0.000000 
-8.227700 27.307900 0.352700 98.036900 88.527900 113.812000 -18.189200 -20.132600 -18.709800 1.647000 8.088500 22.983200 0.588600 9.850400 -21.245500 1.365000 7.394500 20.889600 16.912700 17.970200 -16.103200 -1.183600 -6.904400 19.432500 0.879200 -17.128800 -11.984900 -0.318600 3.628500 -10.033800 -0.535700 1.443100 -5.284300 2.946400 0.865100 2.984700 7.245800 -0.314800 2.735000 2.911800 -0.162200 0.168300 -90.982800 3.908100 6.056600 9.369400 -15.747300 -1.298600 0.000000 0.000000 39.124100 -7.125000 0.000000 0.000000 93.505500 -1.570900 10.208100 -8.736100 14.738900 -1.132100 0.000000 0.000000 26.584400 7.125000 0.000000 0.000000 
-8.231300 27.307600 0.345900 97.275400 88.510300 113.203000 -18.184300 -20.341900 -18.947400 1.664400 8.128900 23.106200 0.564700 10.022400 -21.177500 1.237000 7.052700 19.871600 16.792200 18.045400 -16.363000 -1.196700 -6.941200 19.541300 0.877400 -17.113000 -11.977800 -0.309100 3.574500 -9.882700 -0.590800 1.500700 -5.328700 2.878500 0.897000 2.936200 7.409200 -0.333200 2.783100 2.996900 -0.170300 0.200100 -90.900200 3.940500 5.926400 9.411300 -15.813600 -1.310000 0.000000 0.000000 39.126900 -7.125000 0.000000 0.000000 93.468500 -1.645400 10.373300 -8.759800 14.776900 -1.138100 0.000000 0.000000 26.302400 7.125000 0.000000 0.000000 
-8.234200 27.306300 0.336900 95.717000 88.517300 111.781000 -18.180300 -20.469100 -19.194200 1.685800 8.178300 23.257100 0.564100 10.049700 -21.198700 1.126100 6.740300 18.948200 16.696100 18.040400 -16.605600 -1.204100 -6.962000 19.602700 0.883600 -17.124800 -11.832600 -0.327200 3.676700 -10.168800 -0.315200 1.528700 -4.592300 3.399800 0.839900 4.301300 7.672000 -0.244300 1.909000 3.209400 -0.146900 -0.064400 -91.490300 2.614900 4.460600 9.247300 -15.553700 -1.265600 0.000000 0.000000 40.430600 -7.125000 0.000000 0.000000 92.901700 -0.487000 10.296400 -8.644800 14.592600 -1.108900 0.000000 0.000000 26.367300 7.125000 0.000000 0.000000 
-8.228500 27.303100 0.330200 100.932000 88.522100 116.788000 -18.291600 -20.398400 -19.056100 1.709000 8.231600 23.419800 0.578000 9.924000 -21.213100 1.071200 6.579300 18.474900 16.784600 18.056200 -16.284700 -1.204900 -6.964200 19.609200 0.918300 -17.383800 -11.813600 -0.356900 3.838200 -10.622000 -0.338800 1.492500 -4.728900 3.318100 0.839100 3.907700 7.713600 -0.297500 1.948200 3.226700 -0.175700 -0.081500 -91.521500 2.924800 3.668800 9.206000 -15.488100 -1.254600 0.000000 0.000000 40.938000 -7.125000 0.000000 0.000000 92.967600 -0.930200 9.950300 -8.625400 14.561400 -1.104000 0.000000 0.000000 26.632100 7.125000 0.000000 0.000000 
-8.230100 27.300500 0.316700 90.787100 88.757500 106.791000 -18.095200 -20.493400 -19.297200 1.733300 8.286900 23.589000 0.566500 10.214300 -21.381600 1.047200 6.507600 18.264400 16.858800 18.158300 -16.492500 -1.201000 -6.953200 19.576800 0.878100 -17.064900 -11.763400 -0.372300 3.919200 -10.849500 -0.364000 1.614800 -4.999500 3.111000 0.923000 3.510300 7.539100 -0.337100 2.236400 3.140200 -0.190400 0.002800 -91.474600 3.471200 3.815300 9.345300 -15.709100 -1.292000 0.000000 0.000000 40.208600 -7.125000 0.000000 0.000000 93.046000 -1.492400 9.846400 -8.649400 14.599900 -1.110100 0.000000 0.000000 26.862300 7.125000 0.000000 0.000000 
-8.228400 27.297900 0.304800 85.519100 88.841700 101.500000 -18.082500 -20.579100 -19.289100 1.757600 8.341800 23.757200 0.590200 10.290800 -21.683300 1.041600 6.490800 18.215300 16.900300 18.191800 -16.440100 -1.192000 -6.928100 19.502400 0.875100 -17.021300 -11.678300 -0.367600 3.894600 -10.780400 -0.409500 1.712900 -5.260900 2.966500 0.995400 3.017700 7.024800 -0.512700 2.848400 2.893200 -0.262700 0.231500 -91.386500 4.178200 4.280200 9.550100 -16.032700 -1.348000 0.000000 0.000000 39.228300 -7.125000 0.000000 0.000000 93.096100 -2.088000 9.802500 -8.683400 14.654400 -1.118700 0.000000 0.000000 26.877400 7.125000 0.000000 0.000000 
-8.226500 27.296700 0.293000 82.831900 88.930600 98.766600 -18.088600 -20.601600 -19.251000 1.779800 8.391500 23.909600 0.647700 10.040900 -21.987700 1.065000 6.560900 18.420800 16.978500 18.100500 -16.372700 -1.181100 -6.897300 19.411400 0.863500 -16.925500 -11.654800 -0.346400 3.781600 -10.463000 -0.468500 1.845500 -5.280200 2.817900 1.062100 2.951100 6.795400 -0.667100 3.095100 2.782300 -0.333400 0.327200 -91.279400 4.434600 4.491200 9.642200 -16.178000 -1.373600 0.000000 0.000000 38.648700 -7.125000 0.000000 0.000000 93.139700 -2.257300 9.860000 -8.716900 14.708000 -1.127100 0.000000 0.000000 26.631600 7.125000 0.000000 0.000000 
-8.224200 27.295700 0.283500 76.359100 89.083600 92.286900 -17.975700 -20.569200 -19.258700 1.792600 8.420100 23.997500 0.727900 9.591600 -22.316800 1.035600 6.472600 18.162100 17.138300 18.049700 -16.358400 -1.174400 -6.878400 19.355700 0.840200 -16.753300 -11.695500 -0.326100 3.670600 -10.151700 -0.461300 1.976500 -5.262600 2.736000 1.124300 2.982000 7.289000 -0.621800 2.839500 3.040100 -0.323400 0.190400 -91.237800 4.584900 4.527600 9.655500 -16.198900 -1.377300 0.000000 0.000000 38.305200 -7.125000 0.000000 0.000000 93.128500 -2.329800 9.939400 -8.742400 14.749000 -1.133600 0.000000 0.000000 26.418000 7.125000 0.000000 0.000000 
-8.220300 27.296000 0.276200 66.688400 89.167600 82.604200 -17.899900 -20.512800 -19.244700 1.799200 8.434800 24.042600 0.792200 9.236500 -22.585900 0.984100 6.314300 17.699100 17.258600 18.065300 -16.304700 -1.169500 -6.864500 19.314500 0.828500 -16.675000 -11.748400 -0.340800 3.751200 -10.377800 -0.400200 2.003800 -5.193400 2.742200 1.131400 3.095800 7.652100 -0.582000 2.707500 3.254200 -0.311200 0.136800 -91.348500 4.642200 4.115700 9.617600 -16.139200 -1.366700 0.000000 0.000000 38.272000 -7.125000 0.000000 0.000000 93.071000 -2.240200 9.754900 -8.725600 14.722000 -1.129400 0.000000 0.000000 26.616300 7.125000 0.000000 0.000000 
-8.215100 27.297800 0.268700 56.086100 89.079300 72.008100 -17.973000 -20.483500 -19.193400 1.798300 8.432600 24.035900 0.819900 9.100000 -22.715700 0.974100 6.283200 17.608300 17.209600 18.133500 -16.271200 -1.168400 -6.861400 19.305500 0.819600 -16.619300 -11.802400 -0.351400 3.808400 -10.538300 -0.538700 2.238500 -5.160500 2.654700 1.244200 3.174700 7.559100 -0.755900 2.756300 3.158800 -0.392800 0.166100 -91.141800 4.767200 4.234400 9.628600 -16.156600 -1.369800 0.000000 0.000000 37.955000 -7.125000 0.000000 0.000000 93.331300 -2.283400 8.392000 -8.515900 14.385600 -1.076700 0.000000 0.000000 28.458000 7.125000 0.000000 0.000000 
-8.209500 27.298000 0.261000 51.928600 88.946700 67.879400 -18.115200 -20.437100 -19.141100 1.788200 8.410200 23.967100 0.835300 8.961900 -22.736500 0.973300 6.280800 17.601300 17.073500 18.311700 -16.259400 -1.175400 -6.881300 19.364100 0.839600 -16.750700 -11.701800 -0.363800 3.874500 -10.723800 -0.573300 2.273900 -5.152800 2.711500 1.260900 3.222800 7.431500 -0.730000 3.088100 3.079500 -0.369000 0.303800 -91.129500 4.957300 3.928500 9.708100 -16.281600 -1.392000 0.000000 0.000000 37.593900 -7.125000 0.000000 0.000000 93.393000 -2.276200 8.542400 -8.601300 14.522800 -1.098000 0.000000 0.000000 27.847900 7.125000 0.000000 0.000000 
-8.205700 27.299600 0.251800 57.374100 88.918800 73.377600 -18.251300 -20.363300 -19.153100 1.773100 8.376500 23.863600 0.853000 8.708900 -22.683000 0.944900 6.190900 17.339400 16.923200 18.519700 -16.256400 -1.186600 -6.912800 19.457300 0.861100 -16.941000 -11.793900 -0.339400 3.743700 -10.356800 -0.332400 2.150100 -4.647800 3.194200 1.153400 4.163000 7.309400 -0.627200 2.982300 3.078300 -0.317900 0.336300 -91.646500 4.221900 2.652600 9.590800 -16.097000 -1.359300 0.000000 0.000000 38.122100 -7.125000 0.000000 0.000000 92.985400 -1.322000 8.049100 -8.403600 14.205000 -1.049000 0.000000 0.000000 28.547100 7.125000 0.000000 0.000000 
-8.201000 27.302500 0.242300 50.363400 88.710600 66.409700 -18.427100 -20.218400 -19.156400 1.759900 8.346900 23.772900 0.857500 8.695200 -22.711100 0.919500 6.109300 17.102000 16.732200 18.689100 -16.286900 -1.196400 -6.940400 19.539000 0.823300 -16.722700 -12.080700 -0.301500 3.530700 -9.759800 -0.451000 2.266400 -5.042300 3.065900 1.247800 3.469400 7.279100 -0.730500 3.635900 3.064100 -0.356400 0.566900 -91.567900 4.971000 2.160700 9.569000 -16.062600 -1.353300 0.000000 0.000000 38.064700 -7.125000 0.000000 0.000000 93.127100 -1.781400 5.880200 -7.928900 13.437600 -0.935500 0.000000 0.000000 31.942400 7.125000 0.000000 0.000000 
-8.189700 27.302100 0.233000 48.559800 88.578300 64.481300 -18.624600 -20.073100 -18.940900 1.748100 8.320500 23.691700 0.864200 8.623100 -22.711700 0.903100 6.056200 16.947600 16.653300 18.823900 -16.071100 -1.206800 -6.969400 19.624700 0.836900 -16.869700 -12.234000 -0.291500 3.472000 -9.595800 -0.397800 2.328200 -5.024600 3.249500 1.278600 3.442300 7.202800 -0.799200 3.807100 3.056800 -0.389500 0.632500 -91.732600 5.213400 1.551200 9.522400 -15.989100 -1.340400 0.000000 0.000000 38.221300 -7.125000 0.000000 0.000000 92.990200 -1.794100 6.305700 -8.018400 13.582600 -0.956400 0.000000 0.000000 30.843500 7.125000 0.000000 0.000000 
-8.182400 27.299900 0.221000 47.330800 88.565200 63.122300 -18.702100 -20.014900 -18.748700 1.741200 8.304700 23.643500 0.863500 8.555300 -22.650700 0.869000 5.943700 16.621100 16.662700 18.905600 -15.881300 -1.213900 -6.989000 19.682700 0.861000 -17.059000 -12.250700 -0.282400 3.417900 -9.444500 -0.416000 2.345100 -5.063800 3.236100 1.291800 3.326800 7.413800 -0.745400 3.709800 3.148300 -0.368100 0.546400 -91.733100 5.576000 0.773700 9.462500 -15.894400 -1.323900 0.000000 0.000000 38.582700 -7.125000 0.000000 0.000000 93.098900 -1.874700 6.282100 -8.125900 13.756800 -0.981900 0.000000 0.000000 30.120400 7.125000 0.000000 0.000000 
-8.178800 27.298600 0.204500 44.778100 88.436000 60.656600 -18.798200 -20.024700 -18.846800 1.743400 8.309700 23.658900 0.846700 8.570000 -22.513500 0.838800 5.842100 16.327000 16.497600 18.883900 -16.010900 -1.212900 -6.986200 19.674600 0.838300 -16.874100 -12.209200 -0.292600 3.478500 -9.613800 -0.586000 2.359900 -5.211300 2.952900 1.310000 3.142800 7.618600 -0.660300 3.707500 3.219500 -0.327000 0.503400 -91.581200 6.055300 0.038100 9.457600 -15.886800 -1.322600 0.000000 0.000000 38.848700 -7.125000 0.000000 0.000000 93.424000 -1.941300 3.474700 -7.596700 12.897000 -0.859900 0.000000 0.000000 34.455100 7.125000 0.000000 0.000000 
